<?xml version="1.0" standalone="no"?><!DOCTYPE svg PUBLIC "-//W3C//DTD SVG 1.1//EN" "http://www.w3.org/Graphics/SVG/1.1/DTD/svg11.dtd"><svg t="1636173809713" class="icon" viewBox="0 0 1252 1024" version="1.1" xmlns="http://www.w3.org/2000/svg" p-id="7391" xmlns:xlink="http://www.w3.org/1999/xlink" width="78.25" height="64"><defs><style type="text/css"></style></defs><path d="M157.98111 692.907z m1065.705-176.501c-39.56-38.952-465.6-444.297-503.943-480.815a138.158 138.158 0 0 0-195.977 10.956C498.20411 71.5 52.68911 481.714 21.04111 510.928a69.992 69.992 0 0 0 3.043 102.858 85.208 85.208 0 0 0 102.858 0C152.50411 594.31 500.02911 271.13 552.98011 226.7a102.858 102.858 0 0 1 153.374 0c33.474 29.823 396.215 371.262 422.386 393.172a83.99 83.99 0 0 0 104.684 0 68.775 68.775 0 0 0-9.738-103.466z" fill="#0CB05B" p-id="7392"></path><path d="M703.31111 339.296a111.379 111.379 0 0 0-155.2 0c-27.388 25.562-390.738 353.003-391.347 353.611V1024h935.459V692.907h-3.652zM314.39811 876.712V769.594h620.8v107.118z" fill="#0CB05B" p-id="7393"></path></svg>