<?xml version="1.0" standalone="no"?><!DOCTYPE svg PUBLIC "-//W3C//DTD SVG 1.1//EN" "http://www.w3.org/Graphics/SVG/1.1/DTD/svg11.dtd"><svg t="1635411227697" class="icon" viewBox="0 0 1024 1024" version="1.1" xmlns="http://www.w3.org/2000/svg" p-id="3076" xmlns:xlink="http://www.w3.org/1999/xlink" width="64" height="64"><defs><style type="text/css"></style></defs><path d="M232 64h560c61.856 0 112 50.144 112 112v672c0 61.856-50.144 112-112 112H232c-61.856 0-112-50.144-112-112V176c0-61.856 50.144-112 112-112z m112 238.186V764c0 15.464 12.536 28 28 28h56c15.464 0 28-12.536 28-28V260c0-15.464-12.536-28-28-28h-84c-6.489 0.46-12.848 3.838-17.809 8.799l-74.392 74.392c-10.935 10.935-10.935 28.663 0 39.598 10.935 10.935 28.663 10.935 39.598 0L344 302.186z m336 420.228V260c0-15.464-12.536-28-28-28h-56c-15.464 0-28 12.536-28 28v504c0 15.464 12.536 28 28 28h82.309a27.913 27.913 0 0 0 19.501-8.199l74.392-74.392c10.935-10.935 10.935-28.663 0-39.598-10.935-10.935-28.664-10.935-39.598 0L680 722.414z" p-id="3077" fill="#cdcdcd"></path></svg>