<?xml version="1.0" standalone="no"?><!DOCTYPE svg PUBLIC "-//W3C//DTD SVG 1.1//EN" "http://www.w3.org/Graphics/SVG/1.1/DTD/svg11.dtd"><svg t="1627022447162" class="icon" viewBox="0 0 1024 1024" version="1.1" xmlns="http://www.w3.org/2000/svg" p-id="2726" xmlns:xlink="http://www.w3.org/1999/xlink" width="200" height="200"><defs><style type="text/css">@font-face { font-family: feedback-iconfont; src: url("//at.alicdn.com/t/font_1031158_1uhr8ri0pk5.eot?#iefix") format("embedded-opentype"), url("//at.alicdn.com/t/font_1031158_1uhr8ri0pk5.woff2") format("woff2"), url("//at.alicdn.com/t/font_1031158_1uhr8ri0pk5.woff") format("woff"), url("//at.alicdn.com/t/font_1031158_1uhr8ri0pk5.ttf") format("truetype"), url("//at.alicdn.com/t/font_1031158_1uhr8ri0pk5.svg#iconfont") format("svg"); }
</style></defs><path d="M64 900.27v-59.74h59.73V243.2A119.47 119.47 0 0 1 243.2 123.73h298.67A119.47 119.47 0 0 1 661.33 243.2v179.2H780.8a119.47 119.47 0 0 1 119.47 119.46v298.67H960v59.74zM601.6 243.2a59.74 59.74 0 0 0-59.73-59.74H243.2a59.74 59.74 0 0 0-59.74 59.74v597.33H601.6z m238.94 298.66a59.74 59.74 0 0 0-59.74-59.73H661.33v358.4h179.21z m-597.34 0h238.93v59.74H243.2z m0-119.46h238.93v59.73H243.2z m0-119.47h238.93v59.74H243.2z m0 0" p-id="2727"></path></svg>