<?xml version="1.0" standalone="no"?><!DOCTYPE svg PUBLIC "-//W3C//DTD SVG 1.1//EN" "http://www.w3.org/Graphics/SVG/1.1/DTD/svg11.dtd"><svg t="1635838031577" class="icon" viewBox="0 0 1024 1024" version="1.1" xmlns="http://www.w3.org/2000/svg" p-id="6320" xmlns:xlink="http://www.w3.org/1999/xlink" width="64" height="64"><defs><style type="text/css"></style></defs><path d="M856.30860031 920h39.99999938c19.99999969 4.00000031 31.99999969 19.99999969 32.00000062 40.00000031 0 16.00000031-16.00000031 31.99999969-32.00000062 31.99999969H132.3086c-19.99999969-4.00000031-31.99999969-19.99999969-31.99999969-40.00000031 0-16.00000031 16.00000031-31.99999969 31.99999969-31.99999969h31.99999969c7.99999969-180 91.99999969-336 212.00000062-403.99999969-120-72-204-228-212.00000062-412.00000031H132.3086c-19.99999969 4.00000031-36-12-40.00000031-31.99999969s12-40.00000031 32.00000062-40.00000031h775.99999969c19.99999969 4.00000031 31.99999969 19.99999969 31.99999969 40.00000031 0 16.00000031-16.00000031 31.99999969-31.99999969 31.99999969h-36c-7.99999969 184.00000031-91.99999969 340.00000031-211.99999969 412.00000031 112.00000031 67.99999969 196.00000031 220.00000031 204 403.99999969z" fill="#DBAB6F" p-id="6321"></path><path d="M452.59584 426.666667h119.466667c51.2-29.866667 89.6-93.866667 93.866666-170.666667H362.99584c0 72.533333 34.133333 140.8 89.6 170.666667z" fill="#FFFFFF" p-id="6322"></path></svg>