<?xml version="1.0" standalone="no"?><!DOCTYPE svg PUBLIC "-//W3C//DTD SVG 1.1//EN" "http://www.w3.org/Graphics/SVG/1.1/DTD/svg11.dtd"><svg t="1635411443166" class="icon" viewBox="0 0 1024 1024" version="1.1" xmlns="http://www.w3.org/2000/svg" p-id="9440" xmlns:xlink="http://www.w3.org/1999/xlink" width="64" height="64"><defs><style type="text/css"></style></defs><path d="M381.7472 257.024H628.736c76.3904 0 134.7584-165.6832 134.7584-165.6832 0-49.664-4.9152-87.1424-89.8048-89.8048S568.5248 60.7232 507.4944 60.7232c-62.464 0-93.7984-48.7424-170.7008-59.2896s-89.8048 40.2432-89.8048 89.8048c0.1024 0.1024 58.368 165.7856 134.7584 165.7856z m260.5056 51.2H381.7472C93.4912 308.224 22.528 874.8032 22.528 874.8032 22.528 949.248 82.8416 1024 157.2864 1024h709.4272c74.4448 0 134.7584-74.752 134.7584-149.1968 0 0-70.8608-566.5792-359.2192-566.5792z m29.5936 435.4048c17.408 0.512 31.0272 15.0528 30.6176 32.3584-0.512 16.6912-13.9264 30.1056-30.6176 30.6176H544.0512v82.6368c0 17.408-14.0288 31.4368-31.4368 31.4368s-31.4368-14.0288-31.4368-31.4368v-82.6368H352.6656c-17.408-0.512-31.0272-15.0528-30.6176-32.3584 0.512-16.6912 13.9264-30.1056 30.6176-30.6176h128.512v-39.936H352.6656c-17.408-0.512-31.0272-15.0528-30.6176-32.3584 0.512-16.6912 13.9264-30.1056 30.6176-30.6176h86.8352l-88.8832-158.1056c-8.3968-15.2576-2.9696-34.4064 12.288-42.8032 14.848-8.192 33.4848-3.1744 42.1888 11.264l107.1104 189.6448h5.4272l107.1104-189.6448c9.0112-14.848 28.3648-19.6608 43.2128-10.6496 14.5408 8.704 19.456 27.3408 11.264 42.1888l-88.8832 158.1056h81.6128c17.408 0.512 31.0272 15.0528 30.6176 32.3584-0.512 16.6912-13.9264 30.1056-30.6176 30.6176H544.0512v39.936h127.7952z" p-id="9441" fill="#cdcdcd"></path></svg>