<?xml version="1.0" standalone="no"?><!DOCTYPE svg PUBLIC "-//W3C//DTD SVG 1.1//EN" "http://www.w3.org/Graphics/SVG/1.1/DTD/svg11.dtd"><svg t="1635409299488" class="icon" viewBox="0 0 1024 1024" version="1.1" xmlns="http://www.w3.org/2000/svg" p-id="7749" xmlns:xlink="http://www.w3.org/1999/xlink" width="64" height="64"><defs><style type="text/css"></style></defs><path d="M767.9 190.4l43.5 0.9c23.2 0.5 41.8 19.4 41.8 42.6V917c0 23.6-19.1 42.6-42.6 42.6h-597c-23.6 0-42.6-19.1-42.6-42.6V234.8c0-23.6 19.1-42.6 42.6-42.6h42.6v85.3h511.7v-87.1zM649.3 831.8c19.5 0 35.6-19.2 35.6-42.6s-16-42.6-35.6-42.6H377c-19.6 0-35.6 19.2-35.6 42.6s16 42.6 35.6 42.6h272.3z m0-170.6c19.5 0 35.6-19.2 35.6-42.6s-16-42.6-35.6-42.6H377c-19.6 0-35.6 19.2-35.6 42.6s16 42.6 35.6 42.6h272.3z m0-170.5c19.5 0 35.6-19.2 35.6-42.6s-16-42.6-35.6-42.6H377c-19.6 0-35.6 19.2-35.6 42.6s16 42.6 35.6 42.6h272.3zM298.8 234.8v-42.6h85.3v-42.6c0-23.6 19.1-42.6 42.6-42.6h42.6V64.2h85.3v42.6h42.6c23.6 0 42.6 19.1 42.6 42.6V192h85.3v42.6H298.8z" p-id="7750" fill="#cdcdcd"></path></svg>