<?xml version="1.0" standalone="no"?><!DOCTYPE svg PUBLIC "-//W3C//DTD SVG 1.1//EN" "http://www.w3.org/Graphics/SVG/1.1/DTD/svg11.dtd"><svg t="1635838008905" class="icon" viewBox="0 0 1024 1024" version="1.1" xmlns="http://www.w3.org/2000/svg" p-id="4462" xmlns:xlink="http://www.w3.org/1999/xlink" width="64" height="64"><defs><style type="text/css"></style></defs><path d="M512 0a512 512 0 1 1 0 1024A512 512 0 0 1 512 0z m0 394.296889a48.014222 48.014222 0 0 0-48.014222 48.014222v309.703111l0.398222 6.030222a48.014222 48.014222 0 0 0 95.573333-6.030222V442.311111l-0.341333-6.030222A48.014222 48.014222 0 0 0 512 394.296889z m0-176.014222a64 64 0 1 0 0 128 64 64 0 0 0 0-128z" fill="#FF3719" p-id="4463"></path></svg>