<?xml version="1.0" standalone="no"?><!DOCTYPE svg PUBLIC "-//W3C//DTD SVG 1.1//EN" "http://www.w3.org/Graphics/SVG/1.1/DTD/svg11.dtd"><svg t="1635411896391" class="icon" viewBox="0 0 1092 1024" version="1.1" xmlns="http://www.w3.org/2000/svg" p-id="22838" xmlns:xlink="http://www.w3.org/1999/xlink" width="68.25" height="64"><defs><style type="text/css"></style></defs><path d="M155.151515 0h779.761486c42.041056 0 81.079179 18.017595 110.107527 50.048876 30.029326 32.031281 46.044966 75.073314 46.044966 121.118279v546.533725c0-10.009775-4.00391-20.01955-11.010753-28.027371L933.912023 529.517107c6.005865-34.033236-6.005865-69.067449-33.032258-88.086022-26.025415-20.01955-61.059629-20.01955-87.085044 0-26.025415 19.018573-39.038123 54.052786-32.03128 88.086022l-63.061584 69.067448c-11.010753-2.001955-23.022483-2.001955-34.033235 1.000978L465.454545 361.352884c2.001955-6.005865 3.002933-13.012708 3.002933-20.019551 0-32.031281-17.016618-62.060606-43.042033-77.075268-27.026393-14.013685-59.057674-10.009775-82.080157 10.009775-24.02346 20.01955-34.033236 53.051808-28.02737 85.083089l-64.062561 69.067448c-11.010753-3.002933-22.021505-3.002933-32.031281 0L72.070381 268.261975c-16.01564-17.016618-40.039101-16.01564-56.054741 1.000977-15.014663 17.016618-16.01564 44.043011-2.001955 62.060606l145.14174 158.154448c-1.000978 7.006843-2.001955 15.014663-2.001955 23.022483 0 46.044966 35.034213 85.083089 77.075269 85.083089 44.043011 0 78.076246-39.038123 78.076246-85.083089 0-8.00782-1.000978-15.014663-3.002932-23.022483l61.059628-66.064516c7.006843 2.001955 14.013685 3.002933 20.019551 3.002932 8.00782 0 15.014663-1.000978 22.021505-3.002932l214.209189 235.229716c-2.001955 8.00782-4.00391 15.014663-4.00391 24.023461 0 47.045943 35.034213 85.083089 78.076246 85.083089s78.076246-38.037146 78.076246-85.083089c0-8.00782-1.000978-14.013685-3.002932-22.021506l60.058651-67.065493c7.006843 2.001955 14.013685 4.00391 21.020528 4.00391s14.013685-1.000978 20.01955-4.00391l146.142717 160.156402c8.00782 8.00782 18.017595 13.012708 29.028348 13.012708s21.020528-6.005865 29.028348-13.012708c7.006843-8.00782 10.009775-17.016618 11.010753-28.02737v128.125122c0 45.043988-16.01564 88.086022-46.044966 120.117302-29.028348 32.031281-69.067449 50.048876-110.107527 50.048876H156.152493c-42.041056 0-81.079179-18.017595-110.107527-50.048876-29.028348-33.032258-46.044966-75.073314-46.044966-120.117302V171.167155c0-46.044966 16.01564-89.086999 45.043988-121.118279S113.110459 0 155.151515 0z m0 0z" p-id="22839" fill="#cdcdcd"></path></svg>