<?xml version="1.0" standalone="no"?><!DOCTYPE svg PUBLIC "-//W3C//DTD SVG 1.1//EN" "http://www.w3.org/Graphics/SVG/1.1/DTD/svg11.dtd"><svg t="1635411288135" class="icon" viewBox="0 0 1024 1024" version="1.1" xmlns="http://www.w3.org/2000/svg" p-id="3558" xmlns:xlink="http://www.w3.org/1999/xlink" width="64" height="64"><defs><style type="text/css"></style></defs><path d="M232.006933 1003.169113l277.94021-277.94021c131.997219 41.691032 261.897696 59.58648 404.963763-74.312436a384.386434 384.386434 0 0 0 76.409177-423.736916l-196.606128 196.606127a67.144503 67.144503 0 0 1-97.230312 0L600.253331 326.555366a67.144503 67.144503 0 0 1 0-97.230312L796.859458 32.718926a386.580699 386.580699 0 0 0-423.736916 76.409178c-137.556023 134.289007-116.003467 273.064066-74.312435 404.963762l-277.940211 277.94021a67.144503 67.144503 0 0 0 0 97.230312l113.906725 113.906725a67.144503 67.144503 0 0 0 97.230312 0z m-102.106456-109.030581a68.753631 68.753631 0 1 1 97.230312 0 67.144503 67.144503 0 0 1-97.230312-0.048761z" p-id="3559" fill="#cdcdcd"></path></svg>