<?xml version="1.0" standalone="no"?><!DOCTYPE svg PUBLIC "-//W3C//DTD SVG 1.1//EN" "http://www.w3.org/Graphics/SVG/1.1/DTD/svg11.dtd"><svg t="1635413257409" class="icon" viewBox="0 0 1024 1024" version="1.1" xmlns="http://www.w3.org/2000/svg" p-id="32724" xmlns:xlink="http://www.w3.org/1999/xlink" width="64" height="64"><defs><style type="text/css"></style></defs><path d="M989.184 264.840533L703.488 23.176533a98.5088 98.5088 0 0 0-63.488-23.210666H157.696A157.661867 157.661867 0 0 0 0 157.559467v708.846933a157.661867 157.661867 0 0 0 157.696 157.559467h708.608A157.661867 157.661867 0 0 0 1024 866.4064V339.8656a97.860267 97.860267 0 0 0-34.816-75.025067z m-270.336 434.244267a32.802133 32.802133 0 0 1-32.768 32.802133H337.92a32.802133 32.802133 0 0 1-32.768-32.802133V665.6a32.768 32.768 0 0 1 32.768-32.802133h348.16a32.768 32.768 0 0 1 32.768 32.802133v33.4848z m0-218.453333a32.290133 32.290133 0 0 1-32.426667 32.392533H337.578667a32.290133 32.290133 0 0 1-32.426667-32.392533v-34.133334a32.290133 32.290133 0 0 1 32.426667-32.392533h348.842666a32.290133 32.290133 0 0 1 32.426667 32.392533v34.133334z" p-id="32725" fill="#cdcdcd"></path></svg>