<?xml version="1.0" standalone="no"?><!DOCTYPE svg PUBLIC "-//W3C//DTD SVG 1.1//EN" "http://www.w3.org/Graphics/SVG/1.1/DTD/svg11.dtd"><svg t="1642733132851" class="icon" viewBox="0 0 1028 1024" version="1.1" xmlns="http://www.w3.org/2000/svg" p-id="1441" xmlns:xlink="http://www.w3.org/1999/xlink" width="128.5" height="128"><defs><style type="text/css"></style></defs><path d="M524.812041 767.116965L513.766071 762.107745l-11.045971 5.00922-5.458764-12.394607L0 566.17021l53.174788-121.184572L513.766071 617.033051l460.591282-172.047413L1027.532142 566.17021l-497.261336 188.552148zM513.766071 505.22471L0 309.287175V196.387081L513.766071 0.449545l513.766071 195.937536v112.900094z m0-359.63625l-316.801004 107.248668L513.766071 360.150016l316.801003-107.312888zM53.174788 701.932894L513.766071 873.916087l460.591282-172.047413 53.174789 121.184572-497.261336 188.552148-5.458765 12.394606L513.766071 1018.990781l-11.045971 5.009219-5.458764-12.394606L0 823.053246z" p-id="1442" fill="#ffffff"></path></svg>