<?xml version="1.0" standalone="no"?><!DOCTYPE svg PUBLIC "-//W3C//DTD SVG 1.1//EN" "http://www.w3.org/Graphics/SVG/1.1/DTD/svg11.dtd"><svg t="1635411505580" class="icon" viewBox="0 0 1024 1024" version="1.1" xmlns="http://www.w3.org/2000/svg" p-id="11081" xmlns:xlink="http://www.w3.org/1999/xlink" width="64" height="64"><defs><style type="text/css"></style></defs><path d="M227.485 283.818h58.878c8.855 0 16.12-7.239 16.12-16.093v-129.52c0-8.855-7.265-16.094-16.12-16.094h-58.878c-8.958 0-16.093 7.238-16.093 16.094v129.521c0 8.853 7.135 16.092 16.093 16.092z m510.831 0h58.905c8.88 0 16.092-7.239 16.092-16.093v-129.52c0-8.855-7.213-16.094-16.092-16.094h-58.905c-8.88 0-16.197 7.238-16.197 16.094v129.521c0 8.853 7.317 16.092 16.197 16.092z" p-id="11082" fill="#cdcdcd"></path><path d="M866.516 184.034h-20.677v83.692c0 26.768-21.82 48.695-48.618 48.695h-58.905c-26.769 0-48.697-21.925-48.697-48.695v-83.692H334.983v83.692c0 26.768-21.823 48.695-48.619 48.695h-58.879c-26.822 0-48.67-21.925-48.67-48.695v-83.692h-20.884c-51.614 0-93.617 41.976-93.617 93.639V805.5c0 51.819 42.003 93.794 93.617 93.794h708.585c51.744 0 93.798-41.975 93.798-93.794V277.672c0-51.662-42.055-93.638-93.798-93.638z m34.478 621.467c0 19.06-15.444 34.474-34.479 34.474H157.931c-18.88 0-34.27-15.414-34.27-34.474V451.514h777.334l-0.001 353.987z" p-id="11083" fill="#cdcdcd"></path></svg>