<?xml version="1.0" standalone="no"?><!DOCTYPE svg PUBLIC "-//W3C//DTD SVG 1.1//EN" "http://www.w3.org/Graphics/SVG/1.1/DTD/svg11.dtd"><svg t="1642732402946" class="icon" viewBox="0 0 1024 1024" version="1.1" xmlns="http://www.w3.org/2000/svg" p-id="3621" xmlns:xlink="http://www.w3.org/1999/xlink" width="128" height="128"><defs><style type="text/css"></style></defs><path d="M796.585035 127.977743c-15.954367 0-29.007661-13.053294-29.007661-29.007661l0-5.930059c0-15.953344-13.053294-29.006637-29.007661-29.006637l-5.961782 0c-15.954367 0-29.007661 13.053294-29.007661 29.006637l0 5.930059c0 15.954367-13.053294 29.007661-29.007661 29.007661l-326.004889 0c-15.954367 0-29.007661-13.053294-29.007661-29.007661l0-5.930059c0-15.953344-13.053294-29.006637-29.007661-29.006637l-5.961782 0c-15.954367 0-29.007661 13.053294-29.007661 29.006637l0 5.930059c0 15.954367-13.053294 29.007661-29.007661 29.007661L92.734566 127.977743c-15.954367 0-29.007661 13.053294-29.007661 29.007661l0 773.423011c0 15.954367 13.053294 29.007661 29.007661 29.007661l837.421604 0c15.954367 0 29.007661-13.053294 29.007661-29.007661L959.163831 156.984381c0-15.954367-13.053294-29.007661-29.007661-29.007661L796.585035 127.97672zM895.22766 866.497826c0 15.954367-13.053294 29.007661-29.007661 29.007661L156.691203 895.505487c-15.954367 0-29.007661-13.053294-29.007661-29.007661L127.683543 220.948181c0-15.953344 13.053294-29.006637 29.007661-29.006637l69.90614 0c15.954367 0 29.007661 13.053294 29.007661 29.006637l0 69.930699c0 15.953344 13.053294 29.006637 29.007661 29.006637l5.961782 0c15.954367 0 29.007661-13.053294 29.007661-29.006637l0-69.930699c0-15.953344 13.053294-29.006637 29.007661-29.006637l326.004889 0c15.954367 0 29.007661 13.053294 29.007661 29.006637l0 69.930699c0 15.953344 13.053294 29.006637 29.007661 29.006637l5.961782 0c15.954367 0 29.007661-13.053294 29.007661-29.006637l0-69.930699c0-15.953344 13.053294-29.006637 29.007661-29.006637l69.634963 0c15.954367 0 29.007661 13.053294 29.007661 29.006637L895.229706 866.497826zM611.658256 771.255649 413.2443 771.255649l0-37.762045 77.533864 0L490.778164 470.731084l-79.543637 23.013133 0-40.219004 123.114992-35.750225 0 315.717591 77.30976 0L611.659279 771.255649z" p-id="3622" fill="#ffffff"></path></svg>