<?xml version="1.0" standalone="no"?><!DOCTYPE svg PUBLIC "-//W3C//DTD SVG 1.1//EN" "http://www.w3.org/Graphics/SVG/1.1/DTD/svg11.dtd"><svg t="1627262630827" class="icon" viewBox="0 0 1066 1024" version="1.1" xmlns="http://www.w3.org/2000/svg" p-id="4292" xmlns:xlink="http://www.w3.org/1999/xlink" width="208.203125" height="200"><defs><style type="text/css">@font-face { font-family: feedback-iconfont; src: url("//at.alicdn.com/t/font_1031158_1uhr8ri0pk5.eot?#iefix") format("embedded-opentype"), url("//at.alicdn.com/t/font_1031158_1uhr8ri0pk5.woff2") format("woff2"), url("//at.alicdn.com/t/font_1031158_1uhr8ri0pk5.woff") format("woff"), url("//at.alicdn.com/t/font_1031158_1uhr8ri0pk5.ttf") format("truetype"), url("//at.alicdn.com/t/font_1031158_1uhr8ri0pk5.svg#iconfont") format("svg"); }
</style></defs><path d="M231.982545 279.272727H46.545455a46.545455 46.545455 0 0 1-46.545455-46.545454V46.545455a46.545455 46.545455 0 0 1 46.545455-46.545455h185.43709a46.545455 46.545455 0 0 1 46.545455 46.545455v186.181818a46.545455 46.545455 0 0 1-46.545455 46.545454zM92.904727 186.181818h92.718546V93.090909H92.904727v93.090909z m139.077818 837.818182H46.545455a46.545455 46.545455 0 0 1-46.545455-46.545455v-186.181818a46.545455 46.545455 0 0 1 46.545455-46.545454h185.43709a46.545455 46.545455 0 0 1 46.545455 46.545454v186.181818a46.545455 46.545455 0 0 1-46.545455 46.545455z m-139.077818-93.090909h92.718546v-93.090909H92.904727v93.090909z m417.093818-372.363636H46.545455a46.545455 46.545455 0 0 1 0-93.09091h463.45309a46.545455 46.545455 0 0 1 0 93.09091z m510.184728-372.363637H417.419636a46.545455 46.545455 0 0 1 0-93.090909h602.763637a46.545455 46.545455 0 0 1 0 93.090909z m0 744.727273H417.419636a46.545455 46.545455 0 0 1 0-93.090909h602.763637a46.545455 46.545455 0 0 1 0 93.090909z m-208.616728-267.636364a47.010909 47.010909 0 0 1-32.581818-13.498182l-102.865454-103.330909a47.010909 47.010909 0 0 1 0-66.094545 46.219636 46.219636 0 0 1 65.536 0l70.097454 70.749091 175.848728-176.872727a46.219636 46.219636 0 0 1 65.536 0 47.010909 47.010909 0 0 1 0 66.094545l-208.570182 209.454545a47.150545 47.150545 0 0 1-33.000728 13.498182z" p-id="4293"></path></svg>