<?xml version="1.0" standalone="no"?><!DOCTYPE svg PUBLIC "-//W3C//DTD SVG 1.1//EN" "http://www.w3.org/Graphics/SVG/1.1/DTD/svg11.dtd"><svg t="1627262576840" class="icon" viewBox="0 0 1034 1024" version="1.1" xmlns="http://www.w3.org/2000/svg" p-id="3467" xmlns:xlink="http://www.w3.org/1999/xlink" width="201.953125" height="200"><defs><style type="text/css">@font-face { font-family: feedback-iconfont; src: url("//at.alicdn.com/t/font_1031158_1uhr8ri0pk5.eot?#iefix") format("embedded-opentype"), url("//at.alicdn.com/t/font_1031158_1uhr8ri0pk5.woff2") format("woff2"), url("//at.alicdn.com/t/font_1031158_1uhr8ri0pk5.woff") format("woff"), url("//at.alicdn.com/t/font_1031158_1uhr8ri0pk5.ttf") format("truetype"), url("//at.alicdn.com/t/font_1031158_1uhr8ri0pk5.svg#iconfont") format("svg"); }
</style></defs><path d="M715.449653 726.923698c6.244378 0 11.239881 4.917448 11.395991 11.083772v197.010138c0 6.166324-4.917448 11.239881-11.083772 11.395991H299.261834a11.395991 11.395991 0 0 1-11.395991-11.083772v-197.010138c0-6.244378 4.917448-11.239881 11.083772-11.395991H715.449653z m230.885891-243.530756v374.974921h-119.97012v15.923165a11.395991 11.395991 0 0 1-18.889244 8.74213l-49.33059-42.149554a11.395991 11.395991 0 0 1 0-17.48426l49.33059-42.149554a11.395991 11.395991 0 0 1 18.889244 8.664075v11.317936h62.756003v-260.702797h-119.97012c-15.610946 0-28.255812-12.488757-28.568031-28.099703v-0.468328c0-15.610946 12.566811-28.333867 28.099703-28.646086h177.652565zM653.708362 800.06098a36.607668 36.607668 0 1 0 0 73.137282 36.607668 36.607668 0 0 0 0-73.137282zM501.03331 365.218081a11.395991 11.395991 0 0 1 12.332648-0.15611l0.312219 0.15611 198.961506 132.927204a11.395991 11.395991 0 0 1 0.234164 18.81119l-0.234164 0.15611L513.600122 649.493407a11.395991 11.395991 0 0 1-12.332647 0.156109l-0.312219-0.156109L302.071804 516.332038a11.395991 11.395991 0 0 1-0.234164-18.81119l0.312219-0.234165L501.03331 365.296135zM199.663999 133.551643c2.731916 0 5.385776 0.936657 7.415199 2.731915l49.408644 42.149554a11.395991 11.395991 0 0 1 0 17.406205l-49.408644 42.149554a11.395991 11.395991 0 0 1-18.81119-8.58602v-11.317936h-62.834057v260.702797h119.970119c15.610946 0 28.333867 12.488757 28.568032 28.099703V507.355744c0 15.610946-12.488757 28.333867-28.099703 28.568031H68.297889V160.948853h119.970119v-16.00122c0-6.244378 5.073557-11.395991 11.395991-11.39599z m515.785654-65.253754c6.244378 0 11.395991 5.151612 11.395991 11.39599v196.697919c0 6.244378-5.073557 11.395991-11.395991 11.395991H299.261834a11.395991 11.395991 0 0 1-11.395991-11.395991v-196.697919c0-6.244378 5.073557-11.395991 11.395991-11.39599h416.187819z m-354.446528 73.215336a36.607668 36.607668 0 1 0 0 73.137282 36.607668 36.607668 0 0 0 0-73.215337z" p-id="3468"></path></svg>