<?xml version="1.0" standalone="no"?><!DOCTYPE svg PUBLIC "-//W3C//DTD SVG 1.1//EN" "http://www.w3.org/Graphics/SVG/1.1/DTD/svg11.dtd"><svg t="1627022580512" class="icon" viewBox="0 0 1024 1024" version="1.1" xmlns="http://www.w3.org/2000/svg" p-id="5179" xmlns:xlink="http://www.w3.org/1999/xlink" width="200" height="200"><defs><style type="text/css">@font-face { font-family: feedback-iconfont; src: url("//at.alicdn.com/t/font_1031158_1uhr8ri0pk5.eot?#iefix") format("embedded-opentype"), url("//at.alicdn.com/t/font_1031158_1uhr8ri0pk5.woff2") format("woff2"), url("//at.alicdn.com/t/font_1031158_1uhr8ri0pk5.woff") format("woff"), url("//at.alicdn.com/t/font_1031158_1uhr8ri0pk5.ttf") format("truetype"), url("//at.alicdn.com/t/font_1031158_1uhr8ri0pk5.svg#iconfont") format("svg"); }
</style></defs><path d="M728.064 453.12c0 21.504 14.336 34.816 34.816 34.816 21.504 0 34.816-14.336 34.816-34.816-0.512-116.736-94.72-210.944-211.456-211.456-21.504 0-34.816 14.336-34.816 34.816 0 21.504 14.336 34.816 34.816 34.816 78.336 0.512 141.312 63.488 141.824 141.824z m140.8 0c0 21.504 14.336 34.816 34.816 34.816s34.816-14.336 34.816-34.816c0-194.048-159.232-352.256-352.256-352.256-21.504 0-34.816 14.336-34.816 34.816s14.336 34.816 34.816 34.816c155.648 0 282.624 127.488 282.624 282.624z m-476.16-123.392c38.912-38.912 41.984-98.816 7.168-140.8L290.816 50.688C256 4.608 188.416-2.56 142.848 33.28c-3.072 3.072-7.168 3.072-7.168 7.168L39.936 135.68C-51.2 226.816 78.848 474.112 315.392 710.656s479.744 363.52 571.392 274.944l95.232-95.232c41.984-41.984 41.984-109.056 0-147.968l-7.168-7.168L837.12 626.176c-41.984-34.816-101.888-31.744-140.8 7.168l-59.904 59.904c-63.488-38.912-120.32-80.896-169.472-130.56s-91.136-105.984-130.048-169.472c-1.024-0.512 55.808-63.488 55.808-63.488z m-49.664-95.744c10.24 14.336 10.24 34.816-3.072 46.08l-77.824 81.408c-11.264 11.264-13.824 28.16-7.168 41.984 41.472 76.8 94.208 146.432 155.136 208.384 61.44 61.44 131.584 113.664 208.384 155.136 14.336 6.656 31.232 4.096 41.984-7.168l80.896-80.896c14.336-14.336 31.744-14.336 46.08-3.072l137.728 113.152s3.072 0 3.072 3.072c13.824 12.8 14.336 34.304 1.536 48.128l-1.536 1.536-95.232 95.232c-46.08 46.08-264.192-70.656-472.576-274.944C153.088 456.192 39.936 233.984 86.016 187.904l98.816-98.816c14.336-10.24 38.912-10.24 49.152 7.168L343.04 233.984z" p-id="5180"></path></svg>