<?xml version="1.0" standalone="no"?><!DOCTYPE svg PUBLIC "-//W3C//DTD SVG 1.1//EN" "http://www.w3.org/Graphics/SVG/1.1/DTD/svg11.dtd"><svg t="1635411662641" class="icon" viewBox="0 0 1024 1024" version="1.1" xmlns="http://www.w3.org/2000/svg" p-id="15402" xmlns:xlink="http://www.w3.org/1999/xlink" width="64" height="64"><defs><style type="text/css"></style></defs><path d="M175.9 223.9c0.2-53 43.2-95.8 96.2-95.6h479c53.1 0 96.2 42.9 96.2 95.6V800c-0.2 53-43.2 95.8-96.2 95.6h-479c-53 0.1-96-42.7-96.2-95.6V223.9z m95.9 48.7v95.1c0 27.1 21.4 48.3 47.7 48.3h384.2c25.9 0 47.7-21.7 47.7-48.4v-95c0.3-26.4-20.8-48.1-47.2-48.4H319.5c-25.9 0-47.7 21.7-47.7 48.4z m0 295.3c0 31.1 25.1 56 55.9 56 31.1 0 55.9-25.1 55.9-56 0-31.1-25.1-56-55.9-56-31 0.1-55.9 25.1-55.9 56z m0 176.8c0 30.6 24.7 55 55 55 30.6 0 55-24.7 55-55 0-30.6-24.7-55-55-55-30.5 0-55 24.6-55 55z m185.9-177.4c0 30.8 24.8 55.3 55.3 55.3 30.8 0 55.3-24.8 55.3-55.3 0-30.8-24.8-55.3-55.3-55.3-30.8 0-55.3 24.8-55.3 55.3z m1.8 177.4c0 30.6 24.7 55 55 55 30.6 0 55-24.7 55-55 0-30.6-24.7-55-55-55-30.5 0-55 24.6-55 55z m181.2-177.4c0 30.8 24.8 55.3 55.3 55.3 30.8 0 55.3-24.8 55.3-55.3 0-30.8-24.8-55.3-55.3-55.3-30.7 0-55.3 24.8-55.3 55.3z m0 177.1c0 30.8 24.8 55.3 55.3 55.3 30.8 0 55.3-24.8 55.3-55.3 0-30.8-24.8-55.3-55.3-55.3-30.7-0.1-55.3 24.7-55.3 55.3z" fill="#cdcdcd" p-id="15403"></path></svg>