<?xml version="1.0" standalone="no"?><!DOCTYPE svg PUBLIC "-//W3C//DTD SVG 1.1//EN" "http://www.w3.org/Graphics/SVG/1.1/DTD/svg11.dtd"><svg t="1627262499298" class="icon" viewBox="0 0 1024 1024" version="1.1" xmlns="http://www.w3.org/2000/svg" p-id="2002" xmlns:xlink="http://www.w3.org/1999/xlink" width="200" height="200"><defs><style type="text/css">@font-face { font-family: feedback-iconfont; src: url("//at.alicdn.com/t/font_1031158_1uhr8ri0pk5.eot?#iefix") format("embedded-opentype"), url("//at.alicdn.com/t/font_1031158_1uhr8ri0pk5.woff2") format("woff2"), url("//at.alicdn.com/t/font_1031158_1uhr8ri0pk5.woff") format("woff"), url("//at.alicdn.com/t/font_1031158_1uhr8ri0pk5.ttf") format("truetype"), url("//at.alicdn.com/t/font_1031158_1uhr8ri0pk5.svg#iconfont") format("svg"); }
</style></defs><path d="M775.99842608 557.0681363l-46.05967171-46.84246282c0.70511882-6.8934163 1.01823525-14.02106311 1.01823526-21.22759585s-0.31311645-14.17762133-1.01823526-21.22759585l45.98078578-46.84246281c13.94339082-8.06820978 18.72145067-25.84909748 10.73212682-39.7924883l-43.70887112-75.7474797c-8.06820978-13.94339082-25.84909748-18.72145067-39.7924883-10.73212682l-63.60632888 16.37186371a219.44608237 219.44608237 0 0 0-36.73778252-21.22759586l-17.54665718-63.13544059c0-16.05753363-13.08171378-29.13924741-29.13924742-29.13924741h-87.57551407c-16.05874725 0-29.13924741 13.08171378-29.1392474 29.13924741l-17.54665719 63.29199882c-13.00282785 5.87518103-25.30175052 13.08171378-36.73778252 21.22759585l-63.60632889-16.37186371c-13.94339082-8.06820978-31.72427852-3.211264-39.7924883 10.73091319l-43.55231288 75.7474797c-8.06820978 13.94339082-3.211264 31.72427852 10.73091318 39.7924883l45.98078577 46.84246281c-0.70511882 6.8934163-1.01823525 14.02106311-1.01823525 21.22759586 0 7.12886045 0.31311645 14.17762133 1.01823525 21.22759585l-45.98078577 46.84246282c-13.94339082 8.06820978-18.72145067 25.84909748-10.73091318 39.79248829l43.70887111 75.74747971c8.06820978 13.94339082 25.84909748 18.72145067 39.79248829 10.7321268l63.60632889-16.3718637a219.44608237 219.44608237 0 0 0 36.73778252 21.22759586l17.54665719 63.29199881c0 16.05874725 13.08171378 29.13924741 29.1392474 29.13924741h87.49784178c16.05753363 0 29.13924741-13.08171378 29.13924741-29.13924741l17.54665719-63.29199881c13.00282785-5.87518103 25.30175052-13.08171378 36.73778251-21.22759586l63.52744296 16.3718637c13.94339082 8.06820978 31.72427852 3.211264 39.7924883-10.7321268l43.71008474-75.74747971c7.98811022-14.01984948 3.2889363-31.87962311-10.65445451-39.94783289z m-263.58821926 33.99619318c-56.32091022 0-102.06746548-45.74655525-102.06746549-102.06746548s45.74655525-102.06746548 102.06746549-102.06746547 102.06746548 45.74655525 102.06746548 102.06746547c-0.15777185 56.39979615-45.74655525 102.06746548-102.06746548 102.06746548z" p-id="2003"></path><path d="M9.85345897 89.7964563h1002.34642014c23.10144 0 41.77313185 18.644992 41.77313186 41.746432V852.2180077c0 23.12813985-18.67169185 42.074112-41.77313186 42.074112H553.10078103v49.72968771H784.71471408c13.64241067 0 24.87819378 11.56103585 24.87819377 25.17917392 0 13.66911052-11.23578311 25.17917392-24.87819377 25.17917393H237.91267082c-14.188544 0-25.17917392-11.51006341-25.17917393-25.17917393 0-13.61813808 10.99062992-25.17917392 25.17917393-25.17917392h231.33965273V894.29333333H9.85345897c-23.10144 0-41.44545185-18.94597215-41.44545186-42.074112V131.5428883c0-23.10144 18.34401185-41.746432 41.44545186-41.746432z m960.90460918 83.51956385H51.6302317v637.45653571h919.12783645V173.31602015z" p-id="2004"></path></svg>