<?xml version="1.0" standalone="no"?><!DOCTYPE svg PUBLIC "-//W3C//DTD SVG 1.1//EN" "http://www.w3.org/Graphics/SVG/1.1/DTD/svg11.dtd"><svg t="1627262670120" class="icon" viewBox="0 0 1057 1024" version="1.1" xmlns="http://www.w3.org/2000/svg" p-id="5102" xmlns:xlink="http://www.w3.org/1999/xlink" width="206.4453125" height="200"><defs><style type="text/css">@font-face { font-family: feedback-iconfont; src: url("//at.alicdn.com/t/font_1031158_1uhr8ri0pk5.eot?#iefix") format("embedded-opentype"), url("//at.alicdn.com/t/font_1031158_1uhr8ri0pk5.woff2") format("woff2"), url("//at.alicdn.com/t/font_1031158_1uhr8ri0pk5.woff") format("woff"), url("//at.alicdn.com/t/font_1031158_1uhr8ri0pk5.ttf") format("truetype"), url("//at.alicdn.com/t/font_1031158_1uhr8ri0pk5.svg#iconfont") format("svg"); }
</style></defs><path d="M715.323132 90.808537A307.980097 307.980097 0 0 0 496.063793 0.001262a308.005085 308.005085 0 0 0-219.184375 90.807275 307.980097 307.980097 0 0 0-90.807276 219.209363 307.967603 307.967603 0 0 0 90.807276 219.221858 311.103627 311.103627 0 0 0 69.454822 52.362863 505.749547 505.749547 0 0 0-178.590974 101.33982C76.848531 762.579972 17.413995 870.779065 0.322037 987.586607a31.01041 31.01041 0 0 0 26.237655 35.145964 31.535163 31.535163 0 0 0 4.510378 0.324847 31.01041 31.01041 0 0 0 30.635586-26.537514c31.235304-214.636514 218.022421-376.497859 434.370631-376.497859a308.030073 308.030073 0 0 0 219.259339-90.782287 307.992591 307.992591 0 0 0 90.807276-219.221858A307.992591 307.992591 0 0 0 715.335626 90.808537zM496.063793 558.038708c-136.723172 0-247.983325-111.260153-247.983325-248.020808S359.34062 61.997093 496.063793 61.997093s248.020807 111.260153 248.020807 248.008313S632.86193 558.038708 496.063793 558.038708z" fill="" p-id="5103"></path><path d="M1055.300674 748.798956c-2.011554-11.144756-12.756498-22.489419-23.901255-24.988243l-8.333579-1.911601a82.985955 82.985955 0 0 1-56.835759-98.903466l2.611272-7.833814c3.310942-10.844898-0.99953-25.800361-9.745415-33.234364 0 0-7.833814-6.621884-29.923421-19.378382s-31.635116-16.167393-31.635116-16.167394c-10.73245-3.91066-25.800361-0.199906-33.634175 8.133673l-5.822261 6.247061a83.010944 83.010944 0 0 1-114.07133-0.199906l-5.622355-6.022166c-7.733861-8.333579-22.889231-12.056827-33.634175-8.133673 0 0-9.632968 3.510848-31.722575 16.167393-22.089607 12.856451-29.823468 19.478336-29.823468 19.478335-8.745885 7.334049-13.056357 22.18956-9.745415 33.134411l2.398872 7.933767a82.960967 82.960967 0 0 1-57.135618 98.903466l-8.03372 1.811648c-11.044803 2.498824-21.889701 13.743534-23.888761 24.988243 0 0-1.811648 9.995297-1.811647 35.55827s1.811648 35.545776 1.811647 35.545776c1.999059 11.244709 12.756498 22.489419 23.888761 24.988243l7.833814 1.811648a83.123391 83.123391 0 0 1 57.260559 99.078384l-2.286424 7.733861c-3.310942 10.844898 0.99953 25.812855 9.745415 33.234363 0 0 7.833814 6.621884 29.923421 19.378383S704.715623 1022.320265 704.715623 1022.320265c10.744945 3.91066 25.800361 0.199906 33.634175-8.133673l5.522402-5.922213a83.110897 83.110897 0 0 1 114.471142 0.112447l5.522401 5.922213c7.733861 8.346073 22.889231 12.056827 33.634176 8.133673 0 0 9.645462-3.510848 31.735068-16.167393s29.823468-19.378383 29.823469-19.378382c8.745885-7.334049 13.056357-22.289513 9.745414-33.234364l-2.411365-8.03372a83.010944 83.010944 0 0 1 57.235571-98.816008l7.833814-1.811647c11.044803-2.498824 21.889701-13.743534 23.901255-24.988243 0 0 1.799154-9.995297 1.799153-35.545776s-1.911601-35.645729-1.9116-35.645729M801.157747 886.459187a102.064479 102.064479 0 1 1 102.114456-102.014502 102.139444 102.139444 0 0 1-102.114456 102.014502m0 0z m0 0" fill="" p-id="5104"></path><path d="M802.457136 785.619132m-63.882444 0a63.882444 63.882444 0 1 0 127.764887 0 63.882444 63.882444 0 1 0-127.764887 0Z" fill="" p-id="5105"></path></svg>