<?xml version="1.0" standalone="no"?><!DOCTYPE svg PUBLIC "-//W3C//DTD SVG 1.1//EN" "http://www.w3.org/Graphics/SVG/1.1/DTD/svg11.dtd"><svg t="1627022546158" class="icon" viewBox="0 0 1024 1024" version="1.1" xmlns="http://www.w3.org/2000/svg" p-id="4388" xmlns:xlink="http://www.w3.org/1999/xlink" width="200" height="200"><defs><style type="text/css">@font-face { font-family: feedback-iconfont; src: url("//at.alicdn.com/t/font_1031158_1uhr8ri0pk5.eot?#iefix") format("embedded-opentype"), url("//at.alicdn.com/t/font_1031158_1uhr8ri0pk5.woff2") format("woff2"), url("//at.alicdn.com/t/font_1031158_1uhr8ri0pk5.woff") format("woff"), url("//at.alicdn.com/t/font_1031158_1uhr8ri0pk5.ttf") format("truetype"), url("//at.alicdn.com/t/font_1031158_1uhr8ri0pk5.svg#iconfont") format("svg"); }
</style></defs><path d="M543.0784 768l16.7936 170.752L512 972.8l-47.3088-34.7136L483.84 768h59.2384zM512 51.2a256 256 0 0 1 142.6944 468.5824c176.9984 52.5824 305.3056 200.3968 305.3056 376.2176a38.4 38.4 0 1 1-76.8 0c0-137.6256-101.5296-256.1536-244.736-300.9536a128 128 0 1 1-253.0304 0c-143.104 44.8-244.6336 163.328-244.6336 300.9536a38.4 38.4 0 1 1-76.8 0c0-175.8208 128.3072-323.6352 305.3056-376.2688A256 256 0 0 1 512 51.2z m0 524.8c-11.9296 0-23.7568 0.512-35.4304 1.4336a51.2 51.2 0 1 0 70.8096 0A438.9888 438.9888 0 0 0 512 576z m0-448a179.2 179.2 0 1 0 0 358.4 179.2 179.2 0 0 0 0-358.4z" p-id="4389"></path></svg>