<?xml version="1.0" standalone="no"?><!DOCTYPE svg PUBLIC "-//W3C//DTD SVG 1.1//EN" "http://www.w3.org/Graphics/SVG/1.1/DTD/svg11.dtd"><svg t="1642732599541" class="icon" viewBox="0 0 1024 1024" version="1.1" xmlns="http://www.w3.org/2000/svg" p-id="4182" xmlns:xlink="http://www.w3.org/1999/xlink" width="128" height="128"><defs><style type="text/css"></style></defs><path d="M686.79417 671.288889a17.066667 17.066667 0 0 0 0.739556 23.04l39.822222 40.96h-28.842666a16.725333 16.725333 0 0 0-16.554667 16.782222v0.967111a17.066667 17.066667 0 0 0 16.497778 15.815111h52.451555v18.375111h-51.712a17.066667 17.066667 0 0 0-0.512 33.678223h52.224v55.182222a17.066667 17.066667 0 0 0 16.497778 17.066667h0.967111a16.725333 16.725333 0 0 0 15.587556-16.725334v-55.011555h52.280889a16.668444 16.668444 0 0 0 16.497777-16.725334v-0.967111a17.066667 17.066667 0 0 0-16.497777-15.815111h-52.280889v-18.432h52.280889a16.725333 16.725333 0 0 0 16.497777-17.066667v-0.967111a17.066667 17.066667 0 0 0-16.497777-15.815111h-28.899556l39.822222-40.96a17.066667 17.066667 0 0 0 0-23.893333l-0.796444-0.739556a16.327111 16.327111 0 0 0-22.755556 0.739556l-56.092444 57.400889-56.433778-57.742222a16.384 16.384 0 0 0-23.722667 0z m-15.530666-451.868445a28.046222 28.046222 0 0 1 0 56.035556l-445.098667 0.853333a27.989333 27.989333 0 0 1 0-55.978666z m-238.933334 212.935112a27.875556 27.875556 0 0 1 0 55.751111l-205.937777 1.137777a27.932444 27.932444 0 0 1 0-55.808z m334.961778 147.911111a193.422222 193.422222 0 1 0 193.422222 193.422222 193.422222 193.422222 0 0 0-193.194666-193.422222z m94.833778-580.266667a34.133333 34.133333 0 0 1 33.848889 32.654222v394.012445h-67.640889v-358.4H73.93017v865.393777h398.848v67.584H39.796837a34.133333 34.133333 0 0 1-34.133333-32.597333V34.133333A34.133333 34.133333 0 0 1 38.203948 0.284444h823.921778z m-94.606222 523.377778a250.311111 250.311111 0 1 1-250.311111 250.311111 250.311111 250.311111 0 0 1 250.311111-250.311111z" p-id="4183" fill="#ffffff"></path></svg>