<?xml version="1.0" standalone="no"?><!DOCTYPE svg PUBLIC "-//W3C//DTD SVG 1.1//EN" "http://www.w3.org/Graphics/SVG/1.1/DTD/svg11.dtd"><svg t="1627262734050" class="icon" viewBox="0 0 1024 1024" version="1.1" xmlns="http://www.w3.org/2000/svg" p-id="6843" xmlns:xlink="http://www.w3.org/1999/xlink" width="200" height="200"><defs><style type="text/css">@font-face { font-family: feedback-iconfont; src: url("//at.alicdn.com/t/font_1031158_1uhr8ri0pk5.eot?#iefix") format("embedded-opentype"), url("//at.alicdn.com/t/font_1031158_1uhr8ri0pk5.woff2") format("woff2"), url("//at.alicdn.com/t/font_1031158_1uhr8ri0pk5.woff") format("woff"), url("//at.alicdn.com/t/font_1031158_1uhr8ri0pk5.ttf") format("truetype"), url("//at.alicdn.com/t/font_1031158_1uhr8ri0pk5.svg#iconfont") format("svg"); }
</style></defs><path d="M177.143698 480.738243h278.890591v181.11228h80.348289V480.738243h274.554557v181.11228h80.113371V391.756567H536.383146V324.972104H456.035426v66.784463H101.37091v270.093956h75.772788V480.738243z m185.283927 238.273629h267.302808v267.184496H362.427625v-267.184496z m0-718.386751h267.302808V267.810187H362.427625V0.625121zM3.422525 719.011872h267.32613v267.184496H3.422525v-267.184496z" p-id="6844"></path><path d="M1007.179742 825.095935h-15.915852c-7.302373 0-15.029078-5.696625-17.218994-12.664538l-9.121994-22.200625c-3.45836-6.427545-2.04942-15.909026 3.096029-21.065282l11.292001-11.280625c5.178439-5.178439 5.178439-13.608761 0-18.775825l-18.768999-18.746246c-5.167063-5.156825-13.608193-5.156825-18.765017 0l-11.290864 11.278918c-5.138054 5.158531-14.639444 6.567472-21.077227 3.121057l-22.167634-9.133939c-6.955968-2.156356-12.679896-9.903538-12.679896-17.194535v-15.940311c0-7.280758-5.980461-13.272026-13.249843-13.272026h-26.513337c-7.302373 0-13.28454 5.991268-13.28454 13.272026v15.91699c0 7.303511-5.690368 15.050693-12.667951 17.195672l-22.200625 9.135077c-6.436077 3.467461-15.906182 2.058521-21.040824-3.10968l-11.321579-11.281763c-5.160238-5.14488-13.601936-5.14488-18.746815 0l-18.746247 18.746815c-5.167063 5.168201-5.167063 13.597954 0 18.756485l11.25901 11.290864c5.179577 5.156256 6.578279 14.637737 3.118781 21.064145l-9.135645 22.224515c-2.154081 6.967345-9.879648 12.676483-17.194535 12.676483l-15.905613-0.022184c-7.292703 0-13.274302 5.958277-13.274302 13.261219v26.524145c0 7.305786 5.983873 13.285678 13.274302 13.285677h15.905613c7.314887 0.011945 15.029078 5.699469 17.166095 12.666245l9.162948 22.202332c3.436177 6.435508 2.037475 15.938035-3.117644 21.083484l-11.290863 11.269817c-5.138054 5.168201-5.138054 13.609899 0 18.755917l18.775824 18.778668c5.146017 5.157394 13.586578 5.157394 18.746816 0l11.301102-11.293138c5.136348-5.155118 14.606453-6.552114 21.009539-3.08636l22.255231 9.146453c6.978721 2.167163 12.667951 9.890455 12.667951 17.184297v15.884567c0 7.281896 5.945763 13.26065 13.28454 13.26065h26.513337c7.269382 0 13.249843-5.980461 13.249843-13.26065v-15.884567c0-7.293841 5.723928-15.017133 12.679895-17.184297l22.21314-9.146453c6.424132-3.465755 15.92609-2.058521 21.084052 3.08636l11.236827 11.293138c5.167063 5.157394 13.60933 5.157394 18.765017 0l18.768999-18.778668c5.178439-5.157394 5.178439-13.597385 0-18.755917l-11.292001-11.269817c-5.157962-5.156825-6.554389-14.658783-3.096029-21.083484l9.121994-22.202332c2.188778-6.966776 9.937098-12.655437 17.218994-12.655437h15.914714c7.283603 0 13.254393-5.981598 13.254394-13.275439v-26.545191c-0.010807-7.291566-5.969653-13.252687-13.252118-13.252687m-92.805781 26.494567c0 36.633022-29.688999 66.300976-66.300407 66.300975-36.623922 0-66.314058-29.656577-66.314058-66.300975 0-36.603444 29.690137-66.293012 66.314058-66.293013 36.610839 0 66.300407 29.689568 66.300407 66.293013" p-id="6845"></path></svg>