<?xml version="1.0" standalone="no"?><!DOCTYPE svg PUBLIC "-//W3C//DTD SVG 1.1//EN" "http://www.w3.org/Graphics/SVG/1.1/DTD/svg11.dtd"><svg t="1635412508777" class="icon" viewBox="0 0 1190 1024" version="1.1" xmlns="http://www.w3.org/2000/svg" p-id="27940" xmlns:xlink="http://www.w3.org/1999/xlink" width="74.375" height="64"><defs><style type="text/css"></style></defs><path d="M1083.578182 1024H106.961455a106.961455 106.961455 0 0 1-91.601455-162.257455L503.714909 51.665455a106.961455 106.961455 0 0 1 183.109818 0l488.261818 809.890909A106.961455 106.961455 0 0 1 1083.578182 1024zM614.4 698.181818a55.854545 55.854545 0 0 0 0 110.871273 56.506182 56.506182 0 0 0 54.644364-55.854546A55.854545 55.854545 0 0 0 614.4 698.181818zM613.189818 279.272727c-31.371636 0-52.410182 17.687273-52.410182 43.938909 0 42.821818 2.513455 95.883636 5.026909 147.176728s5.026909 104.261818 5.02691 146.990545c0 19.828364 15.825455 31.650909 42.356363 31.650909 16.104727 0 41.704727-8.564364 41.704727-31.650909 0-42.728727 2.513455-95.790545 5.02691-146.990545s5.026909-104.354909 5.026909-147.176728A46.545455 46.545455 0 0 0 613.189818 279.272727z" p-id="27941" fill="#dbdbdb"></path></svg>