<?xml version="1.0" standalone="no"?><!DOCTYPE svg PUBLIC "-//W3C//DTD SVG 1.1//EN" "http://www.w3.org/Graphics/SVG/1.1/DTD/svg11.dtd"><svg t="1635838139224" class="icon" viewBox="0 0 1024 1024" version="1.1" xmlns="http://www.w3.org/2000/svg" p-id="7889" xmlns:xlink="http://www.w3.org/1999/xlink" width="64" height="64"><defs><style type="text/css"></style></defs><path d="M914.45172148 960.05082073H109.96091259c-1.04372148 0-1.90539852-0.86167703-1.90539851-1.90539852v-91.61690074c0-1.04372148 0.86167703-1.90539852 1.90539851-1.90539852h804.49080889c1.04372148 0 1.90539852 0.86167703 1.90539852 1.90539852v91.61690074c0 1.04372148-0.86167703 1.90539852-1.90539852 1.90539852zM512.20631703 51.4791348c-168.02702222 0-305.50698667 137.47996445-305.50698666 305.50698667v441.45777777c0 3.65302518 0.41263408 7.1968237 0.54613333 10.81344h609.92170667c0.13349925-3.6166163 0.54613333-7.17255111 0.54613333-10.81344V356.98612147c0-168.02702222-137.47996445-305.50698667-305.50698667-305.50698667z m-21.74824295 627.44651852V497.90065777H327.67393185l199.2658489-239.95885037v152.95374222h169.81105777L490.45807408 678.92565332z" fill="#F39700" p-id="7890"></path></svg>