<?xml version="1.0" standalone="no"?><!DOCTYPE svg PUBLIC "-//W3C//DTD SVG 1.1//EN" "http://www.w3.org/Graphics/SVG/1.1/DTD/svg11.dtd"><svg t="1598235391030" class="icon" viewBox="0 0 1024 1024" version="1.1" xmlns="http://www.w3.org/2000/svg" p-id="2973" xmlns:xlink="http://www.w3.org/1999/xlink" width="200" height="200"><defs><style type="text/css"></style></defs><path d="M748.308 1024c-119.631 0-216.616-96.985-216.616-216.615S628.677 590.77 748.308 590.77s216.615 96.985 216.615 216.616S867.938 1024 748.308 1024z m98.46-196.923H728.616V669.538H689.23v196.924h157.538v-39.385z m-196.942-256H236.308a39.385 39.385 0 1 0 0 78.77h310.488a255.823 255.823 0 0 0-47.4 98.46H236.309a39.385 39.385 0 1 0 0 78.77H493.43a255.33 255.33 0 0 0 91.353 177.23H137.846a78.77 78.77 0 0 1-78.77-78.769v-768a78.77 78.77 0 0 1 78.77-78.768h59.077V128a88.615 88.615 0 0 0 177.23 0V78.77h196.924V128a88.615 88.615 0 0 0 177.23 0V78.77h59.078a78.77 78.77 0 0 1 78.769 78.769v434.353a254.543 254.543 0 0 0-137.846-40.507c-34.915 0-68.155 7.03-98.482 19.692z m59.097-177.23H236.308a39.385 39.385 0 1 0 0 78.769h472.615a39.385 39.385 0 0 0 0-78.77z m-49.23-216.615A49.23 49.23 0 0 1 610.46 128V49.23a49.23 49.23 0 1 1 98.46 0v78.77a49.23 49.23 0 0 1-49.23 49.23z m-374.155 0A49.23 49.23 0 0 1 236.308 128V49.23a49.23 49.23 0 1 1 98.461 0v78.77a49.23 49.23 0 0 1-49.23 49.23z" p-id="2974"></path></svg>