<?xml version="1.0" standalone="no"?><!DOCTYPE svg PUBLIC "-//W3C//DTD SVG 1.1//EN" "http://www.w3.org/Graphics/SVG/1.1/DTD/svg11.dtd"><svg t="1598423571477" class="icon" viewBox="0 0 1024 1024" version="1.1" xmlns="http://www.w3.org/2000/svg" p-id="6522" width="200" height="200" xmlns:xlink="http://www.w3.org/1999/xlink"><defs><style type="text/css"></style></defs><path d="M606.886995 803.678614l22.080449 0 0 3.834172-22.080449 0L606.886995 803.678614zM704.007668 780.125843l5.443429 0 0 17.664578-5.443429 0L704.007668 780.125843zM721.227483 779.988908l5.511348 0 0 17.801513L721.227483 797.790421 721.227483 779.988908zM606.886995 810.901099l22.080449 0 0 3.800212-22.080449 0L606.886995 810.901099zM127.564 416.290302l768.870905 0 0 528.601965L127.564 944.892267 127.564 416.290302zM968.497621 1024.006573 55.484852 1024.006573 55.484852 342.379515l913.012769 0L968.497621 1024.006573zM83.607956 995.865941 940.323029 995.865941 940.323029 370.519051 83.607956 370.519051 83.607956 995.865941zM823.586731 323.498956 555.605491 109.110677l20.814077-25.966109 300.982507 240.354387L823.586731 323.498956zM200.379309 323.498956l267.998768-214.388278-20.780117-25.966109L146.563966 323.498956 200.379309 323.498956zM560.021362 48.055322c0 26.565335-21.49875 48.064085-48.030126 48.064085-26.547807 0-48.081613-21.49875-48.081613-48.064085 0-26.513848 21.53271-48.046558 48.081613-48.046558C538.522611 0.008764 560.021362 21.541474 560.021362 48.055322z" p-id="6523" fill="#8a8a8a"></path></svg>