<?xml version="1.0" standalone="no"?><!DOCTYPE svg PUBLIC "-//W3C//DTD SVG 1.1//EN" "http://www.w3.org/Graphics/SVG/1.1/DTD/svg11.dtd"><svg t="1605621460152" class="icon" viewBox="0 0 1024 1024" version="1.1" xmlns="http://www.w3.org/2000/svg" p-id="1326" xmlns:xlink="http://www.w3.org/1999/xlink" width="200" height="200"><defs><style type="text/css"></style></defs><path d="M640 926.72c0-6.826667 5.973333-17.92 12.8-25.6 15.36-15.36 16.213333-30.72 2.56-31.573333-32.426667-1.706667-54.613333-10.24-68.266667-24.746667-12.8-13.653333-19.626667-15.36-32.426666-8.533333-8.533333 4.266667-25.6 8.533333-37.546667 8.533333-16.213333 0-22.186667 4.266667-22.186667 17.066667 0 9.386667-2.56 17.066667-5.12 17.066666-14.506667 0-63.146667-29.013333-62.293333-37.546666 3.413333-26.453333-1.706667-38.4-13.653333-34.133334-17.066667 6.826667-17.066667-20.48 0.853333-40.106666 8.533333-9.386667 11.946667-23.04 9.386667-34.986667-6.826667-23.893333-46.933333-29.866667-83.626667-11.093333-32.426667 17.066667-47.786667 16.213333-54.613333-3.413334-6.826667-21.333333-35.84-29.013333-42.666667-10.24-5.12 12.8-6.826667 11.946667-16.213333-0.853333-5.973333-8.533333-20.48-15.36-32.426667-15.36-12.8 0-35.84-14.506667-60.586667-37.546667-22.186667-19.626667-40.96-34.986667-43.52-33.28-8.533333 8.533333-47.786667-42.666667-47.786666-62.293333 0-11.946667 3.413333-19.626667 8.533333-16.213333 13.653333 8.533333 0.853333-58.88-13.653333-69.973334-20.48-15.36-36.693333-50.346667-29.013334-62.293333 4.266667-5.973333 2.56-17.92-1.706666-25.6-15.36-23.893333-1.706667-43.52 29.013333-42.666667 64.853333 0.853333 93.013333-9.386667 104.96-36.693333 5.973333-14.506667 8.533333-31.573333 6.826667-38.4-3.413333-8.533333 0.853333-11.093333 15.36-8.533333 13.653333 1.706667 23.893333-3.413333 29.866666-14.506667 5.12-10.24 16.213333-16.213333 28.16-15.36 11.093333 1.706667 26.453333-5.973333 38.4-18.773333 22.186667-23.893333 39.253333-27.306667 39.253334-8.533334 0 6.826667 7.68 16.213333 17.92 21.333334 13.653333 7.68 17.066667 16.213333 14.506666 40.96-2.56 28.16 0 31.573333 20.48 35.84 28.16 5.12 58.026667 29.013333 58.026667 46.08 0 13.653333 25.6 22.186667 69.973333 22.186666 17.066667 0 33.28 3.413333 35.84 7.68 6.826667 10.24 46.933333 17.066667 52.906667 8.533334 2.56-4.266667 18.773333-7.68 36.693333-7.68 33.28 0 64.853333-24.746667 64.853334-51.2 0-6.826667 7.68-13.653333 17.066666-15.36 27.306667-4.266667 55.466667-20.48 55.466667-32.426667 0-5.973333 11.946667-12.8 25.6-16.213333 21.333333-4.266667 24.746667-8.533333 17.066667-17.066667s-15.36-9.386667-31.573334-3.413333c-27.306667 10.24-31.573333 6.826667-23.893333-25.6 3.413333-17.066667 11.093333-26.453333 20.48-26.453334 16.213333 0 38.4-55.466667 29.013333-70.826666-7.68-11.946667 15.36-23.04 49.493334-23.04 26.453333 0 34.133333 5.12 54.613333 34.133333 13.653333 18.773333 30.72 34.133333 39.253333 34.133333 9.386667 0 23.893333 7.68 32.426667 16.213334 17.066667 17.066667 17.066667 17.066667 37.546667 0 11.946667-8.533333 23.893333-16.213333 26.453333-16.213334s5.12 18.773333 5.12 41.813334c0 28.16-4.266667 43.52-11.946667 46.08-8.533333 3.413333-11.093333 14.506667-7.68 39.253333 4.266667 29.013333 2.56 34.986667-10.24 34.986667-7.68 0-16.213333 7.68-18.773333 17.92-3.413333 11.946667-10.24 16.213333-19.626667 13.653333-10.24-2.56-18.773333 3.413333-25.6 16.213333-5.973333 10.24-26.453333 31.573333-45.226666 46.933334l-34.133334 28.16 5.12-27.306667c6.826667-33.28 0.853333-34.133333-21.333333-5.973333-9.386667 11.946667-22.186667 21.333333-29.013333 21.333333-17.92 0-14.506667 13.653333 8.533333 29.013333 12.8 8.533333 22.186667 10.24 23.893333 4.266667 1.706667-5.12 15.36-7.68 30.72-5.973333l27.306667 2.56-29.013333 29.866666c-24.746667 25.6-27.306667 31.573333-17.066667 42.666667 48.64 52.906667 65.706667 85.333333 45.226667 85.333333-5.12 0-2.56 5.973333 5.12 13.653334 12.8 13.653333 10.24 44.373333-4.266667 54.613333-3.413333 2.56-11.093333 20.48-17.066667 40.106667-11.093333 34.986667-63.146667 95.573333-86.186666 99.84-6.826667 0.853333-19.626667 5.973333-29.013334 11.093333s-31.573333 13.653333-48.64 18.773333c-34.133333 11.093333-38.4 17.066667-23.04 32.426667 14.506667 14.506667-5.973333 45.226667-30.72 45.226667-12.8 0-21.333333-5.12-21.333333-11.946667zM889.173333 826.026667c-12.8-12.8-12.8-25.6 0-53.76 11.093333-24.746667 32.426667-29.013333 32.426667-5.12 0 25.6-10.24 69.12-16.213333 69.12-3.413333 0-10.24-4.266667-16.213334-10.24z" fill="#6ECD44" p-id="1327"></path><path d="M640 928.426667c0-17.92 11.093333-29.013333 31.573333-34.133334 23.893333-5.973333 31.573333 4.266667 19.626667 27.306667-10.24 18.773333-51.2 23.893333-51.2 6.826667zM453.973333 864.426667c-15.36-6.826667-27.306667-17.92-26.453333-23.04 3.413333-26.453333-1.706667-38.4-13.653333-34.133334-17.92 6.826667-17.066667-24.746667 0.853333-40.106666 8.533333-6.826667 11.946667-18.773333 9.386667-32.426667-5.973333-30.72 1.706667-46.08 16.213333-34.133333 6.826667 5.12 11.946667 6.826667 11.946667 4.266666 0-9.386667 21.333333 13.653333 33.28 34.986667 12.8 23.893333 29.013333 17.92 40.96-15.36 8.533333-22.186667 11.946667-24.746667 22.186666-14.506667 11.093333 9.386667 10.24 11.946667-5.973333 17.92-15.36 5.973333-16.213333 8.533333-5.12 17.066667 6.826667 5.973333 12.8 16.213333 12.8 23.04 0 9.386667 9.386667 12.8 36.693333 11.093333 20.48-0.853333 41.813333-5.12 46.933334-9.386666 5.973333-4.266667 20.48-10.24 34.133333-13.653334 19.626667-4.266667 23.04-2.56 23.04 11.946667 0 9.386667 4.266667 17.066667 9.386667 17.066667 11.946667 0 0.853333 33.28-21.333334 61.44-14.506667 19.626667-23.04 22.186667-47.786666 18.773333-15.36-1.706667-35.84-11.093333-44.373334-20.48-12.8-13.653333-19.626667-15.36-32.426666-8.533333-8.533333 4.266667-25.6 8.533333-37.546667 8.533333-16.213333 0-22.186667 4.266667-22.186667 17.066667 0 20.48-4.266667 20.48-40.96 2.56zM889.173333 826.026667c-12.8-12.8-12.8-25.6 0-53.76 11.093333-24.746667 32.426667-29.013333 32.426667-5.12 0 25.6-10.24 69.12-16.213333 69.12-3.413333 0-10.24-4.266667-16.213334-10.24zM763.733333 776.533333c2.56-3.413333 0-8.533333-4.266666-10.24-5.12-1.706667-11.093333-21.333333-11.946667-43.52-3.413333-46.933333-4.266667-47.786667-35.84-53.76-12.8-2.56-26.453333-5.973333-30.72-8.533333-3.413333-2.56-6.826667 0-6.826667 4.266667 0 5.12-4.266667 8.533333-10.24 7.68-5.12-1.706667-11.946667 6.826667-15.36 18.773333-5.12 17.92-6.826667 18.773333-11.946666 6.826667s-11.093333-12.8-29.013334-5.973334c-15.36 5.973333-23.893333 5.12-29.013333-2.56-10.24-16.213333-8.533333-23.893333 5.973333-23.893333 6.826667 0 20.48-11.093333 30.72-24.746667 11.946667-16.213333 23.04-23.04 31.573334-19.626666 7.68 2.56 11.093333 0.853333 7.68-3.413334-2.56-5.12-1.706667-13.653333 1.706666-19.626666 10.24-16.213333 118.613333 22.186667 125.44 43.52 3.413333 11.946667 11.946667 15.36 30.72 13.653333 35.84-3.413333 51.2-27.306667 28.16-44.373333-9.386667-6.826667-14.506667-15.36-11.093333-18.773334 7.68-6.826667-25.6-34.133333-54.613333-45.226666-17.92-6.826667-20.48-11.946667-17.066667-34.986667 5.12-34.133333 39.253333-58.88 61.44-44.373333 11.093333 6.826667 17.066667 6.826667 18.773333 0.853333 1.706667-5.12 15.36-7.68 30.72-5.973333l27.306667 2.56-29.013333 29.866666c-24.746667 25.6-27.306667 31.573333-17.066667 42.666667 6.826667 6.826667 21.333333 24.746667 33.28 39.253333 18.773333 23.893333 19.626667 28.16 6.826667 32.426667-11.946667 5.12-11.946667 7.68 5.12 23.04 17.92 17.066667 17.92 50.346667 0 57.173333-4.266667 1.706667-7.68 7.68-7.68 13.653334 0 7.68-7.68 10.24-21.333334 6.826666-11.946667-1.706667-21.333333-6.826667-21.333333-10.24 0-4.266667-7.68-5.12-16.213333-2.56-11.093333 2.56-20.48 17.066667-27.306667 44.373334-6.826667 29.013333-14.506667 40.106667-26.453333 40.96-8.533333 0.853333-13.653333-1.706667-11.093334-5.973334zM372.053333 609.28c-2.56-6.826667-11.093333-11.946667-17.92-11.946667-7.68 0-30.72-7.68-52.053333-17.066666-37.546667-17.066667-38.4-18.773333-34.133333-51.2 2.56-18.773333 1.706667-34.133333-1.706667-34.986667-29.013333-4.266667-174.933333-1.706667-178.346667 3.413333-6.826667 11.093333-36.693333 5.973333-36.693333-6.826666 0-7.68-5.973333-15.36-12.8-17.92-17.066667-6.826667-37.546667-50.346667-29.866667-64 4.266667-5.973333 2.56-17.066667-1.706666-24.746667-15.36-23.893333-1.706667-43.52 29.013333-42.666667 64.853333 0.853333 93.013333-9.386667 104.96-36.693333 5.973333-14.506667 8.533333-31.573333 6.826667-38.4-3.413333-8.533333 0.853333-11.093333 15.36-8.533333 13.653333 1.706667 23.893333-3.413333 29.866666-14.506667 5.12-10.24 16.213333-16.213333 28.16-15.36 11.093333 1.706667 26.453333-5.973333 38.4-18.773333 22.186667-23.893333 39.253333-27.306667 39.253334-8.533334 0 6.826667 7.68 16.213333 17.92 21.333334 13.653333 7.68 17.066667 16.213333 14.506666 40.96-2.56 28.16 0 31.573333 20.48 35.84 52.906667 9.386667 79.36 68.266667 39.253334 85.333333-44.373333 17.92-65.706667 51.2-34.133334 51.2 8.533333 0 23.04 5.12 31.573334 11.946667 8.533333 5.973333 23.04 9.386667 31.573333 6.826666 24.746667-5.973333 89.6 30.72 95.573333 54.613334 5.12 20.48-9.386667 54.613333-23.04 54.613333-4.266667 0-5.973333 5.12-3.413333 11.946667s0 17.066667-6.826667 22.186666c-8.533333 6.826667-17.066667 4.266667-34.986666-12.8l-24.746667-23.04-5.973333 25.6c-7.68 27.306667-36.693333 41.813333-44.373334 22.186667z" fill="#23AEFF" p-id="1328"></path><path d="M665.6 506.026667c0-52.906667 10.24-77.653333 36.693333-87.04 22.186667-8.533333 34.133333 4.266667 22.186667 25.6-5.12 10.24-4.266667 17.066667 0.853333 20.48s5.973333 10.24 2.56 15.36-5.12 19.626667-4.266666 32.426666c1.706667 17.92-3.413333 23.04-28.16 30.72l-29.866667 9.386667v-46.933333zM571.733333 526.506667c0-7.68-5.973333-19.626667-13.653333-26.453334-6.826667-7.68-9.386667-13.653333-3.413333-13.653333 5.12 0 13.653333-9.386667 18.773333-21.333333s11.946667-21.333333 15.36-21.333334c10.24 0 16.213333 46.08 6.826667 52.053334-4.266667 2.56-6.826667 11.946667-5.12 20.48s-2.56 17.066667-7.68 18.773333c-5.973333 2.56-11.093333-1.706667-11.093334-8.533333zM855.893333 420.693333c5.12-26.453333-5.973333-40.106667-12.8-17.92-6.826667 18.773333-32.426667-0.853333-32.426666-23.893333 0-12.8 2.56-21.333333 5.12-18.773333 2.56 3.413333 18.773333-4.266667 34.986666-15.36 39.253333-26.453333 46.08-25.6 64 5.12 16.213333 28.16 13.653333 31.573333-39.253333 76.8l-24.746667 21.333333 5.12-27.306667zM760.32 408.746667c5.973333-11.946667 11.946667-15.36 17.92-9.386667 11.093333 11.093333 1.706667 27.306667-15.36 27.306667-10.24 0-11.093333-3.413333-2.56-17.92zM930.133333 282.453333c-16.213333-8.533333-34.133333-13.653333-40.106666-11.946666-6.826667 2.56-21.333333-5.973333-34.133334-19.626667-21.333333-23.04-21.333333-23.893333-5.973333-36.693333 16.213333-13.653333 26.453333-61.44 16.213333-77.653334-3.413333-5.973333-10.24-5.973333-22.186666 0-12.8 7.68-17.92 5.973333-21.333334-4.266666-2.56-6.826667-10.24-12.8-17.066666-12.8s-11.946667-5.973333-11.946667-12.8c0-9.386667 9.386667-12.8 33.28-12.8 28.16 0 35.84 4.266667 56.32 34.133333 13.653333 18.773333 30.72 34.133333 39.253333 34.133333 9.386667 0 23.893333 7.68 32.426667 16.213334 17.066667 17.066667 17.066667 17.066667 37.546667 0 11.946667-8.533333 23.893333-16.213333 26.453333-16.213334s5.12 18.773333 5.12 41.813334c0 29.866667-3.413333 43.52-13.653333 46.933333-8.533333 3.413333-11.093333 11.093333-7.68 22.186667 3.413333 11.946667 1.706667 17.066667-7.68 17.066666-6.826667 0-17.066667 1.706667-23.893334 4.266667-5.973333 1.706667-24.746667-3.413333-40.96-11.946667z" fill="#23AEFF" p-id="1329"></path></svg>