<?xml version="1.0" standalone="no"?><!DOCTYPE svg PUBLIC "-//W3C//DTD SVG 1.1//EN" "http://www.w3.org/Graphics/SVG/1.1/DTD/svg11.dtd"><svg t="1598423439125" class="icon" viewBox="0 0 1024 1024" version="1.1" xmlns="http://www.w3.org/2000/svg" p-id="4211" xmlns:xlink="http://www.w3.org/1999/xlink" width="200" height="200"><defs><style type="text/css"></style></defs><path d="M512.512 1.536C232.448 1.536 5.12 228.864 5.12 509.44s227.328 507.904 507.904 507.904c280.576 0 507.904-227.328 507.904-507.904S793.088 1.536 512.512 1.536z m227.84 468.992c-0.512 0.512-1.024 1.536-2.048 2.048l-326.656 303.104c-2.048 1.536-4.096 3.072-6.656 4.096-5.632 2.048-10.752 3.072-15.872 3.072-8.192 0-14.848-2.56-19.456-7.68-7.68-7.168-6.656-16.384-6.144-18.944 0-1.024 0.512-2.048 1.024-3.072l71.68-181.76H305.664c-15.36 0-22.016-7.168-24.576-11.264-5.12-8.192-2.56-16.896 2.048-22.528 0.512-0.512 0.512-1.024 1.024-1.536l278.528-289.28c1.536-1.536 3.072-2.56 5.12-3.584 2.048-1.024 10.24-4.608 18.944-4.608 8.192 0 14.848 2.56 19.968 7.68 5.632 5.632 8.192 13.824 7.168 24.064v1.536l-37.376 162.304 144.896 1.024h1.536c13.824 1.024 19.456 8.704 21.504 11.776 4.608 10.24-2.048 20.48-4.096 23.552z" fill="#FF9D4D" p-id="4212"></path></svg>